<svg xmlns="http://www.w3.org/2000/svg" id="Layer_1" data-name="Layer 1" viewBox="0 0 514.28 160.16"><defs><style>.cls-1{fill:#004071;}.cls-2{fill:#6d6e70;}</style></defs><path class="cls-1" d="M177.53,27.16h17.66c15.17,0,29.05,4.39,29.05,21.05,0,16.27-11.88,22.16-26.85,22.16H191.5V96.82h-14Zm14,32.23h4.89c7,0,13.28-2.29,13.28-10.38s-6.09-10.88-13.28-10.88H191.5Z"></path><path class="cls-1" d="M235.31,48.11a46.12,46.12,0,0,1,17.87-3.89c15.67,0,22.16,6.49,22.16,21.66v6.59c0,5.19.1,9.08.2,12.87s.3,7.49.59,11.48H264.36a62.61,62.61,0,0,1-.6-7.69h-.2c-3.09,5.69-9.78,8.89-15.87,8.89-9.08,0-18-5.49-18-15.27,0-7.69,3.69-12.18,8.78-14.68s11.68-3,17.26-3h7.39c0-8.28-3.69-11.08-11.58-11.08a26.94,26.94,0,0,0-15.87,5.59ZM251,88.24a11.36,11.36,0,0,0,9.39-4.6c2.19-2.89,2.79-6.58,2.79-10.58h-5.79c-6,0-14.87,1-14.87,8.89C242.5,86.34,246.19,88.24,251,88.24Z"></path><path class="cls-1" d="M288.81,45.42h11.88V57.1h.2c.6-4.79,6.08-12.88,14.07-12.88a14.56,14.56,0,0,1,4.09.4V58.09a13.76,13.76,0,0,0-6-1.09c-10.88,0-10.88,13.57-10.88,21V96.82H288.81Z"></path><path class="cls-1" d="M331.73,55.2h-9.89V45.42h9.89V35.14l13.37-4.29V45.42H357V55.2H345.1v24c0,4.39,1.2,8.49,6.29,8.49a11.89,11.89,0,0,0,6.08-1.4l.4,10.58A35.06,35.06,0,0,1,348,98c-10.48,0-16.26-6.49-16.26-16.67Z"></path><path class="cls-1" d="M366.16,45.42h12.67v7h.2c4.19-5.88,9.88-8.18,16.87-8.18,12.17,0,17.46,8.58,17.46,20.16V96.82H400V69.37c0-6.29-.1-14.77-8.68-14.77-9.68,0-11.78,10.48-11.78,17.07V96.82H366.16Z"></path><path class="cls-1" d="M468.36,93.92c-4.89,2.7-10.48,4.1-17.67,4.1-17,0-26.85-9.78-26.85-26.65,0-14.87,7.89-27.15,23.86-27.15,19.06,0,24.45,13.08,24.45,31H436.62c.6,8.28,6.39,13,14.67,13,6.49,0,12.08-2.4,17.07-5.19Zm-9-27.84C459,59.59,456,54,448.5,54s-11.28,5.19-11.88,12.08Z"></path><path class="cls-1" d="M482.93,45.42H494.8V57.1h.2c.6-4.79,6.09-12.88,14.08-12.88a14.59,14.59,0,0,1,4.09.4V58.09a13.76,13.76,0,0,0-6-1.09C496.3,57,496.3,70.57,496.3,78V96.82H482.93Z"></path><path class="cls-2" d="M177.53,109.41h14.72v4.16H183.4v4.82h8.48v4.16H183.4v8.86h-5.87Z"></path><path class="cls-2" d="M201.81,109.41h5.86v22h-5.86Z"></path><path class="cls-2" d="M218.45,109.41h7.47l7.44,14.94h.06l-.09-14.94h5.35v22H231.4l-7.69-15h-.06l.19,15h-5.39Z"></path><path class="cls-2" d="M255.74,109.41h7.19l8.47,22H265l-1.63-4.7h-8.26l-1.74,4.7h-6Zm3.59,4.54h-.06l-2.84,8.6H262Z"></path><path class="cls-2" d="M280.11,109.41h7.47L295,124.35h.07l-.1-14.94h5.36v22h-7.28l-7.69-15h-.06l.19,15h-5.39Z"></path><path class="cls-2" d="M329.18,130.9a24.3,24.3,0,0,1-6.52.89c-5.86,0-12.64-3-12.64-11.29,0-7.66,5.36-11.47,12.61-11.47a22.82,22.82,0,0,1,6.52,1.13l-.47,4.76a11.53,11.53,0,0,0-5.74-1.54c-4.16,0-6.87,3-6.87,7.12,0,4.32,3.06,6.94,7.35,6.94a15.48,15.48,0,0,0,5.48-1.14Z"></path><path class="cls-2" d="M338,109.41h15.51v4.16h-9.65v4.54H353v4.16h-9.11v5h10v4.16H338Z"></path><path class="cls-2" d="M400,130.78a32.71,32.71,0,0,1-8.51,1c-5.86,0-12.64-3-12.64-11.29S384.69,109,392.76,109a21.16,21.16,0,0,1,6.65,1l-.47,4.79a11.2,11.2,0,0,0-5.36-1.42c-4.76,0-8.67,2-8.67,7.12,0,4.32,3.06,6.94,7.35,6.94a5.15,5.15,0,0,0,2.08-.38v-4.35H390.9v-4.16H400Z"></path><path class="cls-2" d="M410.35,109.41h10.47c3.91,0,7.09,1.76,7.09,5.55,0,2.93-1.39,4.88-4.22,5.54v.07c1.89.5,2,2.17,3.12,4.85l2.14,6h-6.12l-1.26-4c-1.19-3.79-1.95-4.73-4.13-4.73h-1.22v8.7h-5.87Zm5.87,9.14h1.54c1.89,0,4.29-.06,4.29-2.55,0-2-2.05-2.43-4.29-2.43h-1.54Z"></path><path class="cls-2" d="M448.05,109c7.25,0,11,4.32,11,11.38s-3.84,11.38-11,11.38-11-4.38-11-11.38S440.8,109,448.05,109Zm0,18.41c3.56,0,5-3.41,5-7,0-3.82-1.42-7-5-7s-5,3.21-5,7C443.07,124,444.49,127.44,448.05,127.44Z"></path><path class="cls-2" d="M487.64,123.06c0,6-3.91,8.73-9.64,8.73s-9.65-2.71-9.65-8.73V109.41h5.86v12.67c0,2.9.79,5.36,3.79,5.36s3.78-2.46,3.78-5.36V109.41h5.86Z"></path><path class="cls-2" d="M497.42,109.41h7c6.72,0,9.87,2.27,9.87,7.22,0,4.44-3.25,7.09-8.73,7.09h-2.27v7.69h-5.86Zm5.86,10.15h1.51c2,0,3.62-.73,3.62-3s-1.6-3-3.62-3h-1.51Z"></path><path class="cls-1" d="M151.68,88.7a75.28,75.28,0,1,0-148.14,0A14.66,14.66,0,0,0,15.77,112.9a14.67,14.67,0,0,0,15.74,15.75,14.66,14.66,0,0,0,15.73,15.73,14.68,14.68,0,0,0,25,11.49l5.36-5.36L83,155.87a14.67,14.67,0,0,0,25-11.49,14.65,14.65,0,0,0,15.77-14.63c0-.36,0-.73,0-1.1a14.67,14.67,0,0,0,15.74-15.75,14.66,14.66,0,0,0,12.23-24.2Zm-37.24-.8a3.56,3.56,0,0,0,0,5l15.74,15.74a7.58,7.58,0,0,1-10.72,10.71l-15.73-15.74a3.56,3.56,0,0,0-6.07,2.52,3.52,3.52,0,0,0,1,2.51l15.74,15.74a7.57,7.57,0,0,1-10.71,10.71L88,119.37a14.59,14.59,0,0,0-10.38-4.29c-.36,0-.73,0-1.1,0A14.67,14.67,0,0,0,60.76,99.38c0-.37.05-.74.05-1.1A14.65,14.65,0,0,0,45,83.65,14.69,14.69,0,0,0,20,72.16L9.81,82.38A68.18,68.18,0,0,1,77.61,7.1a70.19,70.19,0,0,1,7.1.37L48.4,43.79a10.3,10.3,0,0,0,0,14.56,19.11,19.11,0,0,0,26.95,0L86.43,47.28a9.79,9.79,0,0,1,13.84,0l45.64,45.64a7.57,7.57,0,0,1-10.71,10.71L119.46,87.9A3.55,3.55,0,0,0,114.44,87.9ZM25.05,77.19A7.57,7.57,0,0,1,35.76,87.9L20,103.63A7.57,7.57,0,0,1,9.31,92.92Zm0,31.47L40.78,92.92a7.57,7.57,0,0,1,10.71,10.71L35.76,119.37a7.57,7.57,0,0,1-10.71-10.71Zm15.73,15.73,15.74-15.73a7.57,7.57,0,0,1,10.71,10.71L51.49,135.11a7.62,7.62,0,0,1-10.71,0A7.6,7.6,0,0,1,40.78,124.39Zm15.74,15.74,15.74-15.74a7.62,7.62,0,0,1,10.71,0,7.6,7.6,0,0,1,0,10.72L67.23,150.84a7.57,7.57,0,1,1-10.71-10.71Zm88.89-57.75L105.29,42.25a16.91,16.91,0,0,0-23.89,0L70.33,53.33a12,12,0,0,1-16.91,0,3.21,3.21,0,0,1,0-4.52l39.9-39.9a68.23,68.23,0,0,1,52.09,73.47Zm-44.5,63.11a7.48,7.48,0,0,1-2.21,5.35,7.58,7.58,0,0,1-10.71,0l-5.35-5.35L88,140.13a14.55,14.55,0,0,0,3.87-6.85l6.84,6.85A7.5,7.5,0,0,1,100.91,145.49Z"></path></svg>